<svg xmlns="http://www.w3.org/2000/svg" width="597" height="598" viewBox="0 0 597 598" version="1.1">
	<path d="M 0 299.002 L 0 598.003 298.750 597.752 L 597.500 597.500 597.752 298.750 L 598.003 0 299.002 0 L 0 0 0 299.002 M 0.493 299.500 C 0.493 463.950, 0.609 531.076, 0.750 448.669 C 0.891 366.262, 0.891 231.712, 0.750 149.669 C 0.609 67.626, 0.493 135.050, 0.493 299.500 M 350 246.500 L 350 441 395.500 441 L 441 441 441 432 L 441 423 403 423 L 365 423 365 237.500 L 365 52 357.500 52 L 350 52 350 246.500 M 322 214.835 C 322 280.194, 321.701 364.122, 321.336 401.341 L 320.671 469.012 401.086 468.756 L 481.500 468.500 481.794 461.250 L 482.088 454 408.938 454 L 335.789 454 336.533 275 L 337.278 96 329.639 96 L 322 96 322 214.835 M 292 324.422 L 292 512.845 288.645 513.952 C 283.599 515.617, 277.491 521.373, 274.588 527.199 C 271.545 533.306, 271.031 543.746, 273.486 549.620 C 277.823 560.001, 287.605 566.441, 298.931 566.371 C 306.732 566.323, 311.253 564.571, 317.046 559.347 C 331.647 546.185, 327.637 521.753, 309.678 514.441 L 304.909 512.500 305.614 324.250 L 306.319 136 299.159 136 L 292 136 292 324.422 M 293.791 521.988 C 281.140 525.802, 276.791 541.803, 285.814 551.339 C 289.741 555.490, 293.259 557, 299 557 C 306.901 557, 312.299 553.315, 315.452 545.768 C 318.390 538.738, 316.856 531.865, 311.146 526.476 C 306.108 521.721, 299.956 520.130, 293.791 521.988" stroke="none" fill="black" fill-rule="evenodd"/>
</svg>