<svg id="visual" viewBox="0 0 2000 900" preserveAspectRatio="none" width="2000" height="900" xmlns="http://www.w3.org/2000/svg" xmlns:xlink="http://www.w3.org/1999/xlink" version="1.1"><rect x="0" y="0" width="2000" height="900" fill="#D6DCF5"></rect><path d="M0 249L41.7 222.3C83.3 195.7 166.7 142.3 250 141.8C333.3 141.3 416.7 193.7 500 183.3C583.3 173 666.7 100 750 86.5C833.3 73 916.7 119 1000 153C1083.3 187 1166.7 209 1250 185.8C1333.3 162.7 1416.7 94.3 1500 96.8C1583.3 99.3 1666.7 172.7 1750 196.3C1833.3 220 1916.7 194 1958.3 181L2000 168L2000 0L1958.3 0C1916.7 0 1833.3 0 1750 0C1666.7 0 1583.3 0 1500 0C1416.7 0 1333.3 0 1250 0C1166.7 0 1083.3 0 1000 0C916.7 0 833.3 0 750 0C666.7 0 583.3 0 500 0C416.7 0 333.3 0 250 0C166.7 0 83.3 0 41.7 0L0 0Z" fill="#BDC7FF" stroke-linecap="round" stroke-linejoin="miter"></path></svg>