<svg id="visual" viewBox="0 0 900 600" width="900" height="600" xmlns="http://www.w3.org/2000/svg" xmlns:xlink="http://www.w3.org/1999/xlink" version="1.1"><rect x="0" y="0" width="900" height="600" fill="#D6DCF5"></rect><defs><linearGradient id="grad1_0" x1="33.3%" y1="0%" x2="100%" y2="100%"><stop offset="20%" stop-color="#d6dcf5" stop-opacity="1"></stop><stop offset="80%" stop-color="#d6dcf5" stop-opacity="1"></stop></linearGradient></defs><defs><linearGradient id="grad2_0" x1="0%" y1="0%" x2="66.7%" y2="100%"><stop offset="20%" stop-color="#d6dcf5" stop-opacity="1"></stop><stop offset="80%" stop-color="#d6dcf5" stop-opacity="1"></stop></linearGradient></defs><g transform="translate(900, 0)"><path d="M0 270.4C-38.3 270 -76.5 269.6 -103.5 249.8C-130.5 230 -146.2 190.8 -161.2 161.2C-176.3 131.7 -190.7 111.7 -208.8 86.5C-226.9 61.2 -248.7 30.6 -270.4 0L0 0Z" fill="#0d2591"></path></g><g transform="translate(0, 600)"><path d="M0 -270.4C33.8 -255.3 67.6 -240.2 91.1 -219.9C114.6 -199.6 127.8 -174.1 156.3 -156.3C184.7 -138.4 228.3 -128.3 249.8 -103.5C271.4 -78.7 270.9 -39.4 270.4 0L0 0Z" fill="#0d2591"></path></g></svg>